<svg width="80" height="65" viewBox="0 0 80 65" fill="none" xmlns="http://www.w3.org/2000/svg">
<path d="M80 0C76.88 1.852 70.62 4.376 66.94 5.104C66.832 5.132 66.744 5.168 66.64 5.196C63.388 1.988 58.932 0 54 0C44.06 0 36 8.06 36 18C36 18.524 35.956 19.488 36 20C22.588 20 12.38 12.976 5.06 4C4.264 6 3.916 9.16 3.916 12.128C3.916 17.732 8.296 23.236 15.116 26.648C13.86 26.972 12.476 27.204 11.036 27.204C8.712 27.204 6.252 26.592 4 24.736C4 24.804 4 24.868 4 24.94C4 32.772 12.312 38.104 19.704 39.588C18.204 40.472 15.18 40.56 13.704 40.56C12.664 40.56 8.984 40.084 8 39.9C10.056 46.32 17.472 49.928 24.54 50.056C19.012 54.392 15.176 56 3.856 56H0C7.152 60.584 16.26 64.004 25.388 64.004C55.108 64.004 72 41.352 72 20C72 19.656 71.992 18.936 71.98 18.212C71.98 18.14 72 18.072 72 18C72 17.892 71.968 17.788 71.968 17.68C71.956 17.136 71.944 16.628 71.932 16.364C75.092 14.084 77.832 11.24 80 8C77.1 9.288 73.988 10.152 70.72 10.544C74.056 8.544 78.796 3.776 80 0Z" fill="black"/>
</svg>
